<svg id="eKAItHWE4eJ1" xmlns="http://www.w3.org/2000/svg" xmlns:xlink="http://www.w3.org/1999/xlink" viewBox="0 0 1000 1000" shape-rendering="geometricPrecision" text-rendering="geometricPrecision"><defs><filter id="eKAItHWE4eJ2-filter" x="-400%" width="600%" y="-400%" height="600%"><feGaussianBlur id="eKAItHWE4eJ2-filter-blur-0" stdDeviation="50,50" result="result"/></filter><filter id="eKAItHWE4eJ3-filter" x="-400%" width="600%" y="-400%" height="600%"><feGaussianBlur id="eKAItHWE4eJ3-filter-blur-0" stdDeviation="30,30" result="result"/></filter><filter id="eKAItHWE4eJ4-filter" x="-400%" width="600%" y="-400%" height="600%"><feGaussianBlur id="eKAItHWE4eJ4-filter-blur-0" stdDeviation="30,30" result="result"/></filter><filter id="eKAItHWE4eJ5-filter" x="-400%" width="600%" y="-400%" height="600%"><feGaussianBlur id="eKAItHWE4eJ5-filter-blur-0" stdDeviation="30,30" result="result"/></filter><filter id="eKAItHWE4eJ6-filter" x="-400%" width="600%" y="-400%" height="600%"><feGaussianBlur id="eKAItHWE4eJ6-filter-blur-0" stdDeviation="30,30" result="result"/></filter><filter id="eKAItHWE4eJ7-filter" x="-400%" width="600%" y="-400%" height="600%"><feGaussianBlur id="eKAItHWE4eJ7-filter-blur-0" stdDeviation="30,30" result="result"/></filter><filter id="eKAItHWE4eJ8-filter" x="-400%" width="600%" y="-400%" height="600%"><feGaussianBlur id="eKAItHWE4eJ8-filter-blur-0" stdDeviation="30,30" result="result"/></filter><filter id="eKAItHWE4eJ9-filter" x="-400%" width="600%" y="-400%" height="600%"><feGaussianBlur id="eKAItHWE4eJ9-filter-blur-0" stdDeviation="30,30" result="result"/></filter></defs><g id="eKAItHWE4eJ2" style="mix-blend-mode:color-burn" transform="matrix(0.75 0 0 0.75 97.945938 200.328638)" paint-order="stroke fill markers" filter="url(#eKAItHWE4eJ2-filter)"><circle id="eKAItHWE4eJ3" r="150" transform="matrix(2.638035 -0.459112 0.270938 1.556797 445.144024 546.498096)" opacity="0.7" filter="url(#eKAItHWE4eJ3-filter)" fill="rgb(241,163,87)" stroke="none" stroke-width="1"/><circle id="eKAItHWE4eJ4" r="150" transform="matrix(1.980221 0 0 1.632376 366.720197 317.446655)" opacity="0.7" filter="url(#eKAItHWE4eJ4-filter)" fill="rgb(255,251,0)" stroke="none" stroke-width="1"/><circle id="eKAItHWE4eJ5" r="150" transform="matrix(1 0 0 1 395.430144 362.446658)" opacity="0.7" filter="url(#eKAItHWE4eJ5-filter)" fill="rgb(0,147,255)" stroke="none" stroke-width="1"/><circle id="eKAItHWE4eJ6" r="150" transform="matrix(1.068642 1.336818 -1.939377 1.550324 504.179925 278.293635)" opacity="0.7" filter="url(#eKAItHWE4eJ6-filter)" fill="rgb(0,255,255)" stroke="none" stroke-width="1"/><circle id="eKAItHWE4eJ7" r="150" transform="matrix(1.969261 0 0 1.576577 470.286762 467.446654)" opacity="0.7" filter="url(#eKAItHWE4eJ7-filter)" fill="rgb(0,255,255)" stroke="none" stroke-width="1"/><circle id="eKAItHWE4eJ8" r="150" transform="matrix(1.840619 -0.49982 0.351191 1.293285 293.10118 432.09045)" opacity="0.7" filter="url(#eKAItHWE4eJ8-filter)" fill="rgb(0,147,255)" stroke="none" stroke-width="1"/><circle id="eKAItHWE4eJ9" r="150" transform="matrix(2.335088 -0.406389 0.247648 1.422972 720.404124 376.407655)" opacity="0.7" filter="url(#eKAItHWE4eJ9-filter)" fill="rgb(145,89,255)" stroke="none" stroke-width="1"/></g></svg>